<svg xmlns="http://www.w3.org/2000/svg"
shape-rendering="geometricPrecision"
width="4000" height="4000" viewBox="0 0 1024 1024"><rect width="100%" height="100%" fill="#15153B" />
  <metadata>null</metadata>

<path d="
M 0.007 0.006
C 4.456 0.343 9.04 0.044 13.503 0.043
C 22.337 0.042 31.171 0.043 40.004 0.042
C 66.338 0.041 92.671 0.046 119.004 0.043
C 198.671 0.033 278.338 0.042 358.004 0.042
C 505.338 0.042 652.671 0.051 800.004 0.042
C 874.659 0.038 949.342 0.616 1023.993 -0.012
C 1023.61 9.627 1023.952 19.348 1023.952 28.996
C 1023.952 47.83 1023.953 66.664 1023.953 85.497
C 1023.955 141.997 1023.967 198.497 1023.956 254.996
C 1023.925 426.997 1023.965 598.997 1023.954 770.998
C 1023.951 827.331 1023.951 883.665 1023.952 939.998
C 1023.953 967.97 1024.659 996.045 1023.989 1024.006
C 1014.044 1023.502 1003.961 1023.965 994.003 1023.964
C 974.503 1023.962 955.003 1023.963 935.503 1023.963
C 876.836 1023.965 818.17 1023.97 759.503 1023.963
C 582.003 1023.942 404.503 1023.969 227.002 1023.964
C 176.503 1023.962 126.003 1023.962 75.503 1023.963
C 58.67 1023.964 41.837 1023.963 25.003 1023.963
C 16.723 1023.963 8.272 1024.463 0.01 1023.99
C -0.239 1021.043 0.034 1017.959 0.034 1014.998
C 0.034 1008.498 0.034 1001.998 0.034 995.499
C 0.034 975.999 0.034 956.499 0.034 936.999
C 0.034 878.165 0.035 819.332 0.035 760.498
C 0.035 591.499 0.033 422.499 0.033 253.499
C 0.033 197.166 0.038 140.832 0.034 84.499
C 0.033 65.832 0.037 47.165 0.034 28.499
C 0.033 19.03 0.432 9.465 0.007 0.006 Z
M 22.987 200.628
C 22.614 208.563 22.912 216.566 22.907 224.51
C 22.898 239.343 22.874 254.176 22.892 269.009
C 22.941 309.509 22.845 350.01 22.919 390.509
C 23.132 506.508 22.973 622.509 22.966 738.508
C 22.964 765.316 22.403 792.216 23.099 819
C 23.482 833.76 22.641 848.419 25.46 863.006
C 31.683 895.21 49.438 925.911 76.132 945.542
C 82.33 950.1 88.635 954.505 95.454 958.101
C 109.931 965.736 125.572 970.285 141.697 972.787
C 150.867 974.21 160.256 974.062 169.508 974.091
C 180.841 974.127 192.176 974.165 203.509 974.14
C 237.009 974.067 270.51 974.178 304.01 974.17
C 431.172 974.139 558.337 974.271 685.499 974.364
C 727.333 974.394 769.166 974.415 810.999 974.343
C 823.499 974.322 836 974.288 848.5 974.315
C 859.033 974.339 869.465 974.568 879.911 972.971
C 925.188 966.047 965.28 936.493 984.453 894.679
C 990.908 880.603 994.371 865.798 996.064 850.471
C 997.089 841.19 996.835 831.825 996.843 822.504
C 996.854 809.338 996.831 796.171 996.828 783.005
C 996.818 742.339 996.8 701.673 996.795 661.007
C 996.78 538.175 996.876 415.343 996.696 292.511
C 996.665 270.845 996.679 249.178 996.663 227.511
C 996.651 211.374 997.198 195.063 994.055 179.149
C 988.978 153.447 976.536 129.085 958.199 110.29
C 950.509 102.407 941.879 95.142 932.463 89.39
C 914.092 78.168 893.533 71.321 872.079 69.345
C 865.426 68.732 858.682 68.913 852.005 68.903
C 841.839 68.888 831.673 68.926 821.508 68.932
C 783.007 68.958 744.507 68.915 706.007 68.949
C 580.012 69.06 454.012 69.008 328.008 68.954
C 288.008 68.937 248.008 68.971 208.008 68.953
C 196.183 68.948 184.348 69.035 172.53 69.048
C 159.969 69.062 147.668 68.928 135.251 71.118
C 94.748 78.258 59.405 104.853 39.456 140.526
C 29.273 158.734 23.962 179.892 22.987 200.628 Z"
opacity="1" fill="rgb(22,20,60)" fill-rule="evenodd" />
<path d="
M 513.894 349.41
C 513.218 349.626 512.069 348.71 511.495 348.361
C 509.854 347.36 508.041 346.543 506.264 345.82
C 499.124 342.916 492.237 340.452 484.588 339.193
C 461.621 335.41 437.855 338.846 417.296 349.987
C 395.405 361.849 376.693 381.981 367.619 405.335
C 365.457 410.901 363.387 416.563 362.162 422.424
C 361.814 424.092 360.709 426.951 362.035 428.246
C 360.76 428.361 360.771 429.849 360.645 430.997
C 360.298 434.17 359.832 437.298 359.712 440.494
C 359.21 453.84 361.112 467.022 365.306 479.696
C 374.627 507.86 396.876 532.018 423.88 544.131
C 431.413 547.51 439.742 550.796 447.98 551.9
C 449.594 552.782 451.716 552.704 453.503 552.911
C 456.912 553.304 460.343 553.674 463.781 553.761
C 479.685 554.163 495.695 551.023 510.27 544.656
C 515.241 542.485 520.117 539.925 524.7 537.026
C 526.099 536.141 528.361 533.67 530.05 533.923
C 533.331 536.948 536.442 540.243 539.59 543.412
C 543.306 547.153 547.391 551.054 548.166 556.544
C 549.559 566.403 542.758 573.053 536.276 579.32
C 531.078 584.345 526.014 589.504 520.775 594.487
C 517.713 597.399 514.673 601.204 511.211 603.6
C 510.042 604.409 508.431 604.509 507.117 605.003
C 504.675 612.724 503.627 621.215 501.941 629.144
C 501.207 632.597 501.082 637.173 498.519 639.851
C 495.064 643.461 489.417 642.583 484.876 642.592
C 473.957 642.614 463.038 642.636 452.12 642.704
C 447.651 642.732 441.668 643.634 438.438 639.746
C 436.043 636.863 435.727 632.059 434.983 628.503
C 433.343 620.654 431.714 612.786 429.941 604.968
C 428.693 604.143 426.538 604.061 425.076 603.719
C 421.916 602.98 418.783 601.891 415.716 600.838
C 404.244 596.903 392.563 592.204 382.551 585.263
C 380.082 586.559 377.814 588.643 375.545 590.273
C 370.733 593.73 365.852 597.088 361.035 600.539
C 358.33 602.476 355.181 605.641 351.754 606.046
C 346.788 606.634 343.005 601.718 339.835 598.659
C 332.023 591.118 324.17 583.623 316.376 576.063
C 312.726 572.523 308.167 569.384 308.618 563.748
C 308.893 560.313 311.964 557.14 313.812 554.386
C 317.195 549.345 320.764 544.434 324.107 539.365
C 325.389 537.423 327.2 535.544 328.205 533.457
C 327.596 531.767 325.713 530.102 324.764 528.529
C 322.119 524.15 319.647 519.684 317.447 515.062
C 314.563 509.006 311.982 502.87 309.803 496.522
C 308.731 493.399 308.113 489.878 306.751 486.889
C 304.798 485.968 301.788 485.995 299.645 485.564
C 293.66 484.36 287.649 483.284 281.665 482.082
C 278.6 481.466 274.611 481.238 272.106 479.201
C 268.047 475.901 269.08 469.929 269.113 465.306
C 269.199 453.225 269.098 441.141 269.061 429.059
C 269.046 424.444 267.851 418.189 271.76 414.779
C 274.039 412.79 277.688 412.799 280.539 412.304
C 286.849 411.209 293.156 410.005 299.435 408.734
C 301.22 408.372 303.017 408.067 304.796 407.678
C 305.391 407.548 306.198 407.624 306.704 407.287
C 309.503 395.437 314.106 383.803 319.625 372.967
C 321.992 368.319 325.449 364.015 327.599 359.321
C 323.345 352.018 318.068 345.17 313.37 338.139
C 311.467 335.291 308.138 332.052 307.859 328.511
C 307.425 323.011 311.885 319.707 315.465 316.239
C 323.418 308.536 331.454 300.917 339.281 293.084
C 342.585 289.778 345.837 285.081 351.019 285.196
C 354.399 285.271 357.082 287.913 359.74 289.715
C 364.882 293.201 370.087 296.6 375.235 300.079
C 377.072 301.32 378.888 302.584 380.704 303.855
C 381.379 304.327 382.392 305.348 383.266 305.273
C 386.928 302.714 391.141 300.836 395.174 298.944
C 401.232 296.101 407.357 293.266 413.72 291.164
C 417.135 290.036 420.503 288.745 423.981 287.818
C 425.569 287.394 428.278 287.163 429.562 286.149
C 430.868 283.776 431.096 280.067 431.645 277.408
C 432.813 271.749 434.075 266.109 435.395 260.485
C 436.028 257.79 436.288 254.359 438.007 252.109
C 441.413 247.652 447.065 248.36 452.034 248.348
C 463.122 248.323 474.208 248.341 485.295 248.344
C 490.198 248.346 495.644 247.593 499.308 251.599
C 501.552 254.053 501.893 258.368 502.481 261.51
C 503.597 267.474 505.17 273.403 506.536 279.317
C 506.997 281.314 507.185 285.411 508.483 286.938
C 519.272 289.516 531.653 293.419 538.895 302.321
C 542.63 306.912 544.976 313.995 542.601 319.751
C 540.998 323.636 536.491 326.902 533.581 329.821
C 527.068 336.354 520.694 343.187 513.894 349.41 Z
M 328.937 445.582
C 327.015 452.858 338.954 456.019 340.728 448.454
C 342.518 440.822 330.993 437.798 328.937 445.582 Z
M 369.406 349.563
C 367.29 356.553 378.385 360.439 380.469 353.413
C 382.583 346.28 371.667 342.098 369.406 349.563 Z
M 369.415 537.594
C 368.217 544.788 379.569 546.972 380.807 539.891
C 382.102 532.486 370.695 529.905 369.415 537.594 Z
M 461.348 312.053
C 459.539 318.981 470.799 321.921 472.514 314.739
C 474.154 307.869 463.181 305.031 461.348 312.053 Z"
opacity="1" fill="rgb(36,27,75)" fill-rule="evenodd" />
<path d="
M 341.995 709.597
C 342.079 709.009 342.05 709.359 342.028 708.546
C 343.18 707.836 345.636 708.319 347.005 708.313
C 351.005 708.294 355.005 708.282 359.005 708.276
C 369.339 708.261 379.672 708.248 390.006 708.251
C 395.15 708.252 400.57 707.764 405.684 708.28
C 405.784 713.054 405.608 717.82 405.831 722.595
C 403.322 722.137 400.551 722.422 398.006 722.429
C 393.172 722.443 388.339 722.447 383.506 722.451
C 377.839 722.455 372.173 722.419 366.506 722.383
C 363.434 722.363 360.148 722.061 357.108 722.51
C 356.896 727.312 357.085 732.179 357.08 736.996
C 357.077 739.453 356.651 742.396 357.124 744.796
C 360.528 744.423 364.086 744.721 367.509 744.725
C 374.175 744.731 380.842 744.735 387.508 744.742
C 390.676 744.745 393.844 744.739 397.012 744.763
C 398.404 744.773 400.15 744.447 401.467 744.896
C 401.11 748.193 401.463 751.719 401.468 755.042
C 401.47 756.163 401.779 757.763 401.4 758.801
C 391.771 758.696 382.134 758.881 372.503 758.865
C 367.644 758.857 361.881 758.016 357.134 759.091
C 357.052 766.39 357.148 773.695 357.111 780.996
C 357.099 783.33 357.04 785.671 357.105 788.004
C 357.132 788.987 357.171 789.969 357.193 790.952
C 357.194 791.025 357.291 791.9 357.117 791.893
C 352.26 791.704 346.846 791.114 342.037 791.918
C 341.702 789.359 341.976 786.583 341.969 783.997
C 341.954 778.159 342.038 772.329 342.053 766.493
C 342.099 747.551 342.478 728.527 341.995 709.597 Z"
opacity="1" fill="rgb(25,22,60)" fill-rule="evenodd" />
<path d="
M 362.035 428.246
C 365.342 428.334 368.63 429.691 371.951 429.979
C 371.443 431.63 371.412 433.473 371.189 435.182
C 370.415 441.124 370.39 447.205 370.803 453.179
C 372.75 481.342 388.196 507.959 411.19 524.285
C 419.899 530.469 429.231 535.303 439.468 538.416
C 441.932 539.165 444.367 539.899 446.895 540.41
C 447.725 540.578 449.203 540.469 449.33 541.48
C 448.736 544.023 448.443 546.647 448.094 549.235
C 448.054 549.534 448.013 551.887 447.98 551.9
C 439.742 550.796 431.413 547.51 423.88 544.131
C 396.876 532.018 374.627 507.86 365.306 479.696
C 361.112 467.022 359.21 453.84 359.712 440.494
C 359.832 437.298 360.298 434.17 360.645 430.997
C 360.771 429.849 360.76 428.361 362.035 428.246 Z"
opacity="1" fill="rgb(74,237,115)" fill-rule="evenodd" />
<path d="
M 513.894 349.41
C 510.971 351.758 508.495 354.735 505.801 357.327
C 505.032 357.763 503.713 356.848 502.999 356.501
C 500.466 355.27 497.742 354.155 495.048 353.338
C 485.185 350.343 475.098 348.49 464.74 348.792
C 430.332 349.796 399.277 369.427 382.506 399.279
C 378.689 406.075 375.878 413.124 373.828 420.639
C 373.075 423.401 371.82 427.129 371.951 429.979
C 368.63 429.691 365.342 428.334 362.035 428.246
C 360.709 426.951 361.814 424.092 362.162 422.424
C 363.387 416.563 365.457 410.901 367.619 405.335
C 376.693 381.981 395.405 361.849 417.296 349.987
C 437.855 338.846 461.621 335.41 484.588 339.193
C 492.237 340.452 499.124 342.916 506.264 345.82
C 508.041 346.543 509.854 347.36 511.495 348.361
C 512.069 348.71 513.218 349.626 513.894 349.41 Z"
opacity="1" fill="rgb(81,57,229)" fill-rule="evenodd" />
<path d="
M 371.951 429.979
C 371.82 427.129 373.075 423.401 373.828 420.639
C 375.878 413.124 378.689 406.075 382.506 399.279
C 399.277 369.427 430.332 349.796 464.74 348.792
C 475.098 348.49 485.185 350.343 495.048 353.338
C 497.742 354.155 500.466 355.27 502.999 356.501
C 503.713 356.848 505.032 357.763 505.801 357.327
C 502.318 361.566 497.722 364.876 494.269 369.192
C 484.696 365.424 474.529 363.953 464.256 364.245
C 454.035 364.535 443.85 366.697 434.501 370.875
C 425.317 374.979 417.064 380.693 409.901 387.754
C 385.99 411.325 378.944 448.874 392.961 479.452
C 399.923 494.64 411.751 507.397 425.993 515.964
C 436.069 522.025 447.51 525.863 459.256 526.898
C 471.657 527.99 484.593 526.546 496.186 521.835
C 499.276 520.58 502.309 519.244 505.23 517.629
C 506.988 516.657 508.625 515.302 510.478 514.548
C 513.896 518.808 518.986 521.797 522.177 526.234
C 520.556 525.966 519.246 526.997 517.887 527.775
C 515.143 529.344 512.462 531.009 509.657 532.474
C 501.379 536.796 492.307 539.425 483.17 541.136
C 475.126 542.642 466.416 542.974 458.283 542.004
C 456.108 541.745 453.945 541.382 451.772 541.121
C 450.896 541.015 449.911 540.761 449.33 541.48
C 449.203 540.469 447.725 540.578 446.895 540.41
C 444.367 539.899 441.932 539.165 439.468 538.416
C 429.231 535.303 419.899 530.469 411.19 524.285
C 388.196 507.959 372.75 481.342 370.803 453.179
C 370.39 447.205 370.415 441.124 371.189 435.182
C 371.412 433.473 371.443 431.63 371.951 429.979 Z"
opacity="1" fill="rgb(30,23,66)" fill-rule="evenodd" />
<path d="
M 415.428 744.102
C 416.292 739.383 417.315 734.882 419.454 730.542
C 427.1 715.026 443.305 706.632 460.256 706.744
C 469.34 706.804 479.161 709.565 486.274 715.387
C 487.893 716.712 489.382 718.165 490.867 719.634
C 491.205 719.968 492.446 720.881 492.37 721.319
C 491.385 722.653 489.795 723.554 488.595 724.688
C 486.301 726.857 484.15 729.172 481.909 731.39
C 481.199 731.226 480.448 730.085 479.935 729.569
C 478.362 727.988 476.661 726.587 474.78 725.388
C 468.92 721.656 462.127 720.617 455.329 721.241
C 437.265 722.897 426.973 742.261 431.883 758.807
C 435.204 769.997 444.866 777.935 456.398 779.217
C 460.556 779.68 464.793 779.183 468.739 777.787
C 474.042 775.913 478.164 772.774 482.057 768.813
C 483.057 769.289 483.893 770.534 484.73 771.274
C 486.623 772.951 488.536 774.614 490.485 776.226
C 490.889 776.56 492.954 777.915 492.846 778.324
C 491.326 780.603 488.637 782.471 486.522 784.173
C 470.562 797.018 445.773 796.474 430.069 783.425
C 418.761 774.028 413.462 758.559 415.428 744.102 Z"
opacity="1" fill="rgb(23,21,57)" fill-rule="evenodd" />
<path d="
M 449.33 541.48
C 449.911 540.761 450.896 541.015 451.772 541.121
C 453.945 541.382 456.108 541.745 458.283 542.004
C 466.416 542.974 475.126 542.642 483.17 541.136
C 492.307 539.425 501.379 536.796 509.657 532.474
C 512.462 531.009 515.143 529.344 517.887 527.775
C 519.246 526.997 520.556 525.966 522.177 526.234
C 524.976 528.588 527.435 531.366 530.05 533.923
C 528.361 533.67 526.099 536.141 524.7 537.026
C 520.117 539.925 515.241 542.485 510.27 544.656
C 495.695 551.023 479.685 554.163 463.781 553.761
C 460.343 553.674 456.912 553.304 453.503 552.911
C 451.716 552.704 449.594 552.782 447.98 551.9
C 448.013 551.887 448.054 549.534 448.094 549.235
C 448.443 546.647 448.736 544.023 449.33 541.48 Z"
opacity="1" fill="rgb(84,52,222)" fill-rule="evenodd" />
<path d="
M 461.348 312.053
C 463.181 305.031 474.154 307.869 472.514 314.739
C 470.799 321.921 459.539 318.981 461.348 312.053 Z"
opacity="1" fill="rgb(94,243,117)" fill-rule="evenodd" />
<path d="
M 657.978 253.265
C 657.154 255.749 657.427 258.681 657.416 261.271
C 657.396 266.015 657.355 270.758 657.336 275.502
C 657.296 285.669 657.273 295.835 657.276 306.002
C 657.278 311.36 656.651 317.2 657.587 322.493
C 658.605 328.253 663.062 333.491 668.586 335.357
C 674.225 337.262 681.139 336.158 687.009 336.165
C 699.674 336.181 712.34 336.165 725.006 336.162
C 729.329 336.161 733.661 336.209 737.984 336.129
C 738.69 336.116 742.238 335.79 742.217 336.463
C 741.24 401.277 742.209 466.173 742.162 531
C 742.151 545.334 742.198 559.668 742.208 574.003
C 742.214 582.383 741.968 590.795 733.781 595.524
C 729.499 597.998 724.807 597.77 720.034 597.759
C 714.022 597.745 708.01 597.746 701.997 597.745
C 677.164 597.739 652.331 597.741 627.498 597.741
C 620.035 597.741 612.571 597.814 605.108 597.788
C 602.599 597.78 598.103 597.01 595.938 598.403
C 595.8 597.523 592.295 597.785 591.5 597.791
C 587.409 597.819 583.288 597.777 579.201 597.633
C 578.058 597.593 575.571 597.097 575.298 598.552
C 573.158 597.243 569.908 597.898 567.393 597.888
C 561.095 597.861 554.797 597.806 548.498 597.777
C 546.355 597.767 544.209 597.748 542.067 597.811
C 541.482 597.828 540.408 598.132 540.302 597.459
C 547.357 589.974 556.347 583.406 560.795 573.871
C 565.596 563.578 565.521 550.752 559.215 541.102
C 555.555 535.501 549.797 531.052 545.087 526.354
C 529.711 511.017 513.91 496.092 498.435 480.849
C 493.58 476.067 488.656 471.352 483.799 466.569
C 481.864 464.664 478.582 462.48 477.375 460.048
C 477.034 456.253 477.286 452.317 477.268 448.506
C 477.228 440.171 477.287 431.838 477.304 423.504
C 477.311 419.932 477.296 416.36 477.308 412.788
C 477.312 411.56 476.938 409.638 477.419 408.529
C 486.403 398.683 496.294 389.444 505.892 380.205
C 514.346 372.066 522.425 363.451 530.708 355.128
C 535.889 349.922 541.085 344.732 546.221 339.482
C 549.187 336.45 552.388 333.586 554.732 330.017
C 562.191 318.66 559.687 302.687 551.686 292.291
C 546.401 285.425 539.176 280.702 531.377 277.137
C 528.416 275.783 524.726 275.152 521.986 273.451
C 521.486 271.591 521.47 269.482 521.151 267.565
C 520.391 262.999 519.323 258.041 517.561 253.754
C 518.358 253.173 519.534 253.377 520.5 253.36
C 522.667 253.322 524.836 253.324 527.004 253.322
C 535.671 253.315 544.338 253.277 553.006 253.277
C 577.005 253.277 601.004 253.284 625.003 253.272
C 632.503 253.269 640.003 253.262 647.502 253.279
C 649.838 253.284 652.174 253.318 654.51 253.328
C 655.597 253.332 656.94 253.042 657.978 253.265 Z
M 518.343 426.925
C 517.979 430.044 518.28 433.362 518.297 436.503
C 518.311 439.097 518.047 441.897 518.413 444.461
C 521.582 447.246 526.717 448.782 530.439 450.789
C 539.867 455.872 549.368 460.832 558.747 466.005
C 561.361 467.448 563.998 468.833 566.593 470.312
C 568.594 471.453 570.571 472.559 572.885 471.493
C 575.173 470.439 575.1 468.576 575.099 466.333
C 575.097 463.607 575.11 460.877 575.075 458.154
C 565.431 451.955 554.759 447.144 544.698 441.653
C 542.131 440.252 539.558 438.834 536.946 437.521
C 535.963 437.027 534.25 436.393 533.699 435.444
C 536.965 432.744 541.497 431.118 545.204 429.059
C 552.397 425.062 559.705 421.277 566.903 417.29
C 569.535 415.832 572.975 414.608 575.251 412.65
C 575.497 409.896 575.307 406.611 574.994 403.862
C 574.871 402.782 575.176 401.47 574.697 400.461
C 574.215 399.443 573.071 398.716 572.034 398.374
C 570.134 397.748 568.757 398.911 567.217 399.846
C 564.337 401.595 561.355 403.185 558.4 404.802
C 549.795 409.509 541.262 414.347 532.671 419.081
C 527.958 421.678 522.769 423.867 518.343 426.925 Z
M 587.979 491.588
C 587.814 492.331 587.898 491.957 587.726 492.71
C 588.587 493.191 590.432 492.938 591.433 492.951
C 594.131 492.988 596.82 492.942 599.517 492.942
C 600.548 492.942 602.551 493.312 603.419 492.836
C 605.183 488.986 606.07 484.553 607.301 480.507
C 609.124 474.513 611.126 468.565 613.003 462.587
C 618.811 444.093 624.959 425.71 630.832 407.236
C 632.983 400.47 635.284 393.746 637.301 386.937
C 637.794 385.274 638.251 383.593 638.755 381.934
C 638.95 381.291 639.422 380.606 638.981 380.046
C 635.631 379.374 631.736 379.918 628.323 379.95
C 627.028 379.962 625.12 379.753 623.951 380.323
C 621.868 384.492 620.914 389.373 619.441 393.783
C 616.344 403.051 613.278 412.337 610.249 421.628
C 604.534 439.157 598.615 456.646 593.327 474.308
C 591.6 480.077 589.513 485.766 587.979 491.588 Z
M 653.309 400.502
C 652.758 403.257 653.142 406.304 653.188 409.097
C 653.207 410.216 652.961 411.528 653.396 412.568
C 656.47 414.996 660.506 416.584 663.956 418.42
C 670.527 421.918 676.974 425.647 683.509 429.21
C 686.249 430.704 688.998 432.186 691.701 433.744
C 692.363 434.126 693.983 434.777 694.293 435.47
C 688.235 437.775 682.555 441.85 676.811 444.856
C 669.017 448.934 660.492 452.847 653.265 457.857
C 652.807 458.977 653.103 460.561 653.108 461.778
C 653.122 465.073 652.171 472.424 657.463 472.035
C 659.297 471.9 661.031 470.535 662.575 469.64
C 665.62 467.877 668.75 466.231 671.869 464.603
C 680.297 460.203 688.668 455.646 697.006 451.077
C 701.013 448.881 705.855 447.02 709.45 444.205
C 710.408 440.6 709.616 435.742 709.589 432.009
C 709.579 430.565 709.918 428.482 709.379 427.142
C 705.691 424.599 701.575 422.616 697.657 420.447
C 687.739 414.955 677.679 409.633 667.895 403.909
C 665.643 402.592 663.382 401.288 661.12 399.989
C 659.88 399.277 658.496 398.21 657.016 398.129
C 655.561 398.05 654.346 399.025 653.521 400.121
C 653.451 400.248 653.38 400.375 653.309 400.502 Z"
opacity="1" fill="rgb(30,28,69)" fill-rule="evenodd" />
<path d="
M 507.223 708.219
C 512.336 708.222 517.566 708.505 522.666 708.113
C 524.496 712.41 527.106 716.568 529.354 720.667
C 534.244 729.581 539.173 738.52 543.84 747.551
C 545.795 751.334 548.404 754.991 549.935 758.965
C 550.359 759.226 551.812 755.723 552.173 755.1
C 554.539 751.023 556.615 746.772 558.922 742.66
C 565.312 731.269 570.946 719.29 577.878 708.226
C 581.334 708.179 584.795 708.235 588.252 708.242
C 589.867 708.245 591.863 707.893 593.424 708.332
C 593.052 711.986 593.372 715.829 593.367 719.505
C 593.358 727.003 593.36 734.502 593.341 742
C 593.298 758.585 592.563 775.376 593.298 791.938
C 588.73 791.249 583.008 791.355 578.432 791.947
C 577.844 791.325 578.227 789.84 578.25 789.007
C 578.323 786.342 578.281 783.671 578.282 781.005
C 578.289 770.339 578.333 759.672 578.282 749.006
C 578.267 745.856 578.387 742.672 578.225 739.529
C 578.2 739.039 578.437 736.706 577.87 736.847
C 576.476 739.972 574.568 742.821 572.97 745.844
C 569.348 752.698 565.549 759.461 561.94 766.323
C 560.326 769.391 558.611 772.403 556.926 775.432
C 556.228 776.688 555.514 778.917 554.479 779.868
C 551.503 780.001 548.51 779.671 545.542 779.959
C 544.676 779.059 544.113 777.559 543.501 776.46
C 542.158 774.048 540.858 771.61 539.523 769.194
C 535.622 762.14 531.859 755 528.031 747.906
C 526.666 745.377 525.356 742.82 524.022 740.277
C 523.499 739.28 523.116 737.647 522.192 737.01
C 522.581 750.315 522.267 763.679 522.277 777.001
C 522.28 781.949 522.033 786.984 522.322 791.92
C 517.423 792.479 512.338 791.541 507.402 791.982
C 506.642 789.93 507.26 786.701 507.26 784.507
C 507.261 778.673 507.25 772.84 507.252 767.006
C 507.257 747.427 507.694 727.791 507.223 708.219 Z"
opacity="1" fill="rgb(23,21,59)" fill-rule="evenodd" />
<path d="
M 518.343 426.925
C 522.769 423.867 527.958 421.678 532.671 419.081
C 541.262 414.347 549.795 409.509 558.4 404.802
C 561.355 403.185 564.337 401.595 567.217 399.846
C 568.757 398.911 570.134 397.748 572.034 398.374
C 573.071 398.716 574.215 399.443 574.697 400.461
C 575.176 401.47 574.871 402.782 574.994 403.862
C 575.307 406.611 575.497 409.896 575.251 412.65
C 572.975 414.608 569.535 415.832 566.903 417.29
C 559.705 421.277 552.397 425.062 545.204 429.059
C 541.497 431.118 536.965 432.744 533.699 435.444
C 534.25 436.393 535.963 437.027 536.946 437.521
C 539.558 438.834 542.131 440.252 544.698 441.653
C 554.759 447.144 565.431 451.955 575.075 458.154
C 575.11 460.877 575.097 463.607 575.099 466.333
C 575.1 468.576 575.173 470.439 572.885 471.493
C 570.571 472.559 568.594 471.453 566.593 470.312
C 563.998 468.833 561.361 467.448 558.747 466.005
C 549.368 460.832 539.867 455.872 530.439 450.789
C 526.717 448.782 521.582 447.246 518.413 444.461
C 518.047 441.897 518.311 439.097 518.297 436.503
C 518.28 433.362 517.979 430.044 518.343 426.925 Z"
opacity="1" fill="rgb(76,234,120)" fill-rule="evenodd" />
<path d="
M 595.938 598.403
C 593.882 600.275 591.909 602.461 589.267 603.532
C 584.187 605.591 578.605 602.298 575.298 598.552
C 575.571 597.097 578.058 597.593 579.201 597.633
C 583.288 597.777 587.409 597.819 591.5 597.791
C 592.295 597.785 595.8 597.523 595.938 598.403 Z"
opacity="1" fill="rgb(28,16,68)" fill-rule="evenodd" />
<path d="
M 587.979 491.588
C 589.513 485.766 591.6 480.077 593.327 474.308
C 598.615 456.646 604.534 439.157 610.249 421.628
C 613.278 412.337 616.344 403.051 619.441 393.783
C 620.914 389.373 621.868 384.492 623.951 380.323
C 625.12 379.753 627.028 379.962 628.323 379.95
C 631.736 379.918 635.631 379.374 638.981 380.046
C 639.422 380.606 638.95 381.291 638.755 381.934
C 638.251 383.593 637.794 385.274 637.301 386.937
C 635.284 393.746 632.983 400.47 630.832 407.236
C 624.959 425.71 618.811 444.093 613.003 462.587
C 611.126 468.565 609.124 474.513 607.301 480.507
C 606.07 484.553 605.183 488.986 603.419 492.836
C 602.551 493.312 600.548 492.942 599.517 492.942
C 596.82 492.942 594.131 492.988 591.433 492.951
C 590.432 492.938 588.587 493.191 587.726 492.71
C 587.898 491.957 587.814 492.331 587.979 491.588 Z"
opacity="1" fill="rgb(78,235,120)" fill-rule="evenodd" />
<path d="
M 613.229 708.247
C 616.821 708.257 620.415 708.22 624.008 708.216
C 625.399 708.215 627.383 707.82 628.673 708.247
C 630.557 713.061 633.805 717.773 636.332 722.293
C 640.72 730.14 644.868 738.123 649.22 745.989
C 650.885 748.997 652.669 751.956 654.241 755.012
C 654.696 755.897 655.696 758.547 656.515 758.973
C 656.936 757.146 658.183 755.38 659.092 753.744
C 660.94 750.422 662.738 747.068 664.514 743.707
C 668.401 736.351 672.498 729.112 676.41 721.768
C 678.713 717.445 680.766 712.566 683.574 708.56
C 684.492 707.858 686.369 708.232 687.507 708.236
C 690.277 708.244 693.051 708.267 695.82 708.223
C 696.789 708.208 698.292 707.86 699.169 708.234
C 698.939 715.631 699.23 723.094 699.225 730.502
C 699.215 744.167 699.113 757.832 699.09 771.497
C 699.081 776.664 699.074 781.832 699.09 786.999
C 699.094 788.146 699.144 789.292 699.16 790.438
C 699.164 790.766 699.324 791.675 699.018 791.889
C 694.096 791.639 688.853 791.325 683.955 791.956
C 683.814 779.811 684.085 767.658 684.053 755.511
C 684.043 751.512 683.881 747.507 683.925 743.509
C 683.943 741.854 684.048 740.196 684.027 738.542
C 684.022 738.122 684.185 737.083 683.559 737.511
C 676.231 751.626 668.401 765.511 661.146 779.679
C 660.675 780.08 659.315 779.793 658.704 779.793
C 656.325 779.793 653.976 779.781 651.603 779.891
C 646.635 770.186 641.275 760.645 636.103 751.044
C 634.325 747.744 632.493 744.474 630.707 741.179
C 630.126 740.109 629.584 739.013 629.06 737.914
C 629.005 737.799 628.302 736.25 628.221 736.326
C 627.923 736.604 628.291 739.01 628.323 739.569
C 628.521 743.017 628.255 746.545 628.258 750.001
C 628.27 763.956 628.332 777.92 628.229 791.871
C 623.475 791.391 618.209 791.477 613.454 791.913
C 612.628 790.808 613.276 787.364 613.281 785.955
C 613.3 780.639 613.278 775.322 613.277 770.005
C 613.272 749.431 613.621 728.816 613.229 708.247 Z"
opacity="1" fill="rgb(23,21,59)" fill-rule="evenodd" />
<path d="
M 653.309 400.502
C 653.38 400.375 653.451 400.248 653.521 400.121
C 654.346 399.025 655.561 398.05 657.016 398.129
C 658.496 398.21 659.88 399.277 661.12 399.989
C 663.382 401.288 665.643 402.592 667.895 403.909
C 677.679 409.633 687.739 414.955 697.657 420.447
C 701.575 422.616 705.691 424.599 709.379 427.142
C 709.918 428.482 709.579 430.565 709.589 432.009
C 709.616 435.742 710.408 440.6 709.45 444.205
C 705.855 447.02 701.013 448.881 697.006 451.077
C 688.668 455.646 680.297 460.203 671.869 464.603
C 668.75 466.231 665.62 467.877 662.575 469.64
C 661.031 470.535 659.297 471.9 657.463 472.035
C 652.171 472.424 653.122 465.073 653.108 461.778
C 653.103 460.561 652.807 458.977 653.265 457.857
C 660.492 452.847 669.017 448.934 676.811 444.856
C 682.555 441.85 688.235 437.775 694.293 435.47
C 693.983 434.777 692.363 434.126 691.701 433.744
C 688.998 432.186 686.249 430.704 683.509 429.21
C 676.974 425.647 670.527 421.918 663.956 418.42
C 660.506 416.584 656.47 414.996 653.396 412.568
C 652.961 411.528 653.207 410.216 653.188 409.097
C 653.142 406.304 652.758 403.257 653.309 400.502 Z"
opacity="1" fill="rgb(79,236,119)" fill-rule="evenodd" />
<path d="
M 657.978 253.265
C 661.174 255.111 663.519 258.23 666.073 260.85
C 670.013 264.892 674.06 268.831 678.086 272.788
C 692.81 287.258 707.219 302.097 722.224 316.276
C 727.375 321.144 732.313 326.247 737.35 331.234
C 738.578 332.45 739.88 333.596 741.089 334.83
C 741.579 335.329 742.296 335.713 742.217 336.463
C 742.238 335.79 738.69 336.116 737.984 336.129
C 733.661 336.209 729.329 336.161 725.006 336.162
C 712.34 336.165 699.674 336.181 687.009 336.165
C 681.139 336.158 674.225 337.262 668.586 335.357
C 663.062 333.491 658.605 328.253 657.587 322.493
C 656.651 317.2 657.278 311.36 657.276 306.002
C 657.273 295.835 657.296 285.669 657.336 275.502
C 657.355 270.758 657.396 266.015 657.416 261.271
C 657.427 258.681 657.154 255.749 657.978 253.265 Z"
opacity="1" fill="rgb(75,241,112)" fill-rule="evenodd" />

</svg>